<?xml version="1.0" encoding="utf-8" standalone="no"?>
<!DOCTYPE svg PUBLIC "-//W3C//DTD SVG 1.1//EN"
  "http://www.w3.org/Graphics/SVG/1.1/DTD/svg11.dtd">
<svg xmlns:xlink="http://www.w3.org/1999/xlink" width="420.8525pt" height="314.7395pt" viewBox="0 0 420.8525 314.7395" xmlns="http://www.w3.org/2000/svg" version="1.1">
 <metadata>
  <rdf:RDF xmlns:dc="http://purl.org/dc/elements/1.1/" xmlns:cc="http://creativecommons.org/ns#" xmlns:rdf="http://www.w3.org/1999/02/22-rdf-syntax-ns#">
   <cc:Work>
    <dc:type rdf:resource="http://purl.org/dc/dcmitype/StillImage"/>
    <dc:date>2025-06-13T14:55:53.374892</dc:date>
    <dc:format>image/svg+xml</dc:format>
    <dc:creator>
     <cc:Agent>
      <dc:title>Matplotlib v3.8.3, https://matplotlib.org/</dc:title>
     </cc:Agent>
    </dc:creator>
   </cc:Work>
  </rdf:RDF>
 </metadata>
 <defs>
  <style type="text/css">*{stroke-linejoin: round; stroke-linecap: butt}</style>
 </defs>
 <g id="figure_1">
  <g id="patch_1">
   <path d="M 0 314.7395 
L 420.8525 314.7395 
L 420.8525 0 
L 0 0 
z
" style="fill: #ffffff"/>
  </g>
  <g id="axes_1">
   <g id="patch_2">
    <path d="M 56.5325 273.312 
L 413.6525 273.312 
L 413.6525 7.2 
L 56.5325 7.2 
z
" style="fill: #ffffff"/>
   </g>
   <g id="matplotlib.axis_1">
    <g id="xtick_1">
     <g id="line2d_1">
      <defs>
       <path id="m73ff0f4493" d="M 0 0 
L 0 3.5 
" style="stroke: #000000; stroke-width: 0.8"/>
      </defs>
      <g>
       <use xlink:href="#m73ff0f4493" x="82.910682" y="273.312" style="stroke: #000000; stroke-width: 0.8"/>
      </g>
     </g>
     <g id="text_1">
      <!-- TS1 -->
      <g transform="translate(71.619432 289.430125) scale(0.12 -0.12)">
       <defs>
        <path id="DejaVuSans-54" d="M -19 4666 
L 3928 4666 
L 3928 4134 
L 2272 4134 
L 2272 0 
L 1638 0 
L 1638 4134 
L -19 4134 
L -19 4666 
z
" transform="scale(0.015625)"/>
        <path id="DejaVuSans-53" d="M 3425 4513 
L 3425 3897 
Q 3066 4069 2747 4153 
Q 2428 4238 2131 4238 
Q 1616 4238 1336 4038 
Q 1056 3838 1056 3469 
Q 1056 3159 1242 3001 
Q 1428 2844 1947 2747 
L 2328 2669 
Q 3034 2534 3370 2195 
Q 3706 1856 3706 1288 
Q 3706 609 3251 259 
Q 2797 -91 1919 -91 
Q 1588 -91 1214 -16 
Q 841 59 441 206 
L 441 856 
Q 825 641 1194 531 
Q 1563 422 1919 422 
Q 2459 422 2753 634 
Q 3047 847 3047 1241 
Q 3047 1584 2836 1778 
Q 2625 1972 2144 2069 
L 1759 2144 
Q 1053 2284 737 2584 
Q 422 2884 422 3419 
Q 422 4038 858 4394 
Q 1294 4750 2059 4750 
Q 2388 4750 2728 4690 
Q 3069 4631 3425 4513 
z
" transform="scale(0.015625)"/>
        <path id="DejaVuSans-31" d="M 794 531 
L 1825 531 
L 1825 4091 
L 703 3866 
L 703 4441 
L 1819 4666 
L 2450 4666 
L 2450 531 
L 3481 531 
L 3481 0 
L 794 0 
L 794 531 
z
" transform="scale(0.015625)"/>
       </defs>
       <use xlink:href="#DejaVuSans-54"/>
       <use xlink:href="#DejaVuSans-53" x="61.083984"/>
       <use xlink:href="#DejaVuSans-31" x="124.560547"/>
      </g>
     </g>
    </g>
    <g id="xtick_2">
     <g id="line2d_2">
      <g>
       <use xlink:href="#m73ff0f4493" x="184.365227" y="273.312" style="stroke: #000000; stroke-width: 0.8"/>
      </g>
     </g>
     <g id="text_2">
      <!-- TS2 -->
      <g transform="translate(173.073977 289.430125) scale(0.12 -0.12)">
       <defs>
        <path id="DejaVuSans-32" d="M 1228 531 
L 3431 531 
L 3431 0 
L 469 0 
L 469 531 
Q 828 903 1448 1529 
Q 2069 2156 2228 2338 
Q 2531 2678 2651 2914 
Q 2772 3150 2772 3378 
Q 2772 3750 2511 3984 
Q 2250 4219 1831 4219 
Q 1534 4219 1204 4116 
Q 875 4013 500 3803 
L 500 4441 
Q 881 4594 1212 4672 
Q 1544 4750 1819 4750 
Q 2544 4750 2975 4387 
Q 3406 4025 3406 3419 
Q 3406 3131 3298 2873 
Q 3191 2616 2906 2266 
Q 2828 2175 2409 1742 
Q 1991 1309 1228 531 
z
" transform="scale(0.015625)"/>
       </defs>
       <use xlink:href="#DejaVuSans-54"/>
       <use xlink:href="#DejaVuSans-53" x="61.083984"/>
       <use xlink:href="#DejaVuSans-32" x="124.560547"/>
      </g>
     </g>
    </g>
    <g id="xtick_3">
     <g id="line2d_3">
      <g>
       <use xlink:href="#m73ff0f4493" x="285.819773" y="273.312" style="stroke: #000000; stroke-width: 0.8"/>
      </g>
     </g>
     <g id="text_3">
      <!-- TS3 -->
      <g transform="translate(274.528523 289.430125) scale(0.12 -0.12)">
       <defs>
        <path id="DejaVuSans-33" d="M 2597 2516 
Q 3050 2419 3304 2112 
Q 3559 1806 3559 1356 
Q 3559 666 3084 287 
Q 2609 -91 1734 -91 
Q 1441 -91 1130 -33 
Q 819 25 488 141 
L 488 750 
Q 750 597 1062 519 
Q 1375 441 1716 441 
Q 2309 441 2620 675 
Q 2931 909 2931 1356 
Q 2931 1769 2642 2001 
Q 2353 2234 1838 2234 
L 1294 2234 
L 1294 2753 
L 1863 2753 
Q 2328 2753 2575 2939 
Q 2822 3125 2822 3475 
Q 2822 3834 2567 4026 
Q 2313 4219 1838 4219 
Q 1578 4219 1281 4162 
Q 984 4106 628 3988 
L 628 4550 
Q 988 4650 1302 4700 
Q 1616 4750 1894 4750 
Q 2613 4750 3031 4423 
Q 3450 4097 3450 3541 
Q 3450 3153 3228 2886 
Q 3006 2619 2597 2516 
z
" transform="scale(0.015625)"/>
       </defs>
       <use xlink:href="#DejaVuSans-54"/>
       <use xlink:href="#DejaVuSans-53" x="61.083984"/>
       <use xlink:href="#DejaVuSans-33" x="124.560547"/>
      </g>
     </g>
    </g>
    <g id="xtick_4">
     <g id="line2d_4">
      <g>
       <use xlink:href="#m73ff0f4493" x="387.274318" y="273.312" style="stroke: #000000; stroke-width: 0.8"/>
      </g>
     </g>
     <g id="text_4">
      <!-- TS4 -->
      <g transform="translate(375.983068 289.430125) scale(0.12 -0.12)">
       <defs>
        <path id="DejaVuSans-34" d="M 2419 4116 
L 825 1625 
L 2419 1625 
L 2419 4116 
z
M 2253 4666 
L 3047 4666 
L 3047 1625 
L 3713 1625 
L 3713 1100 
L 3047 1100 
L 3047 0 
L 2419 0 
L 2419 1100 
L 313 1100 
L 313 1709 
L 2253 4666 
z
" transform="scale(0.015625)"/>
       </defs>
       <use xlink:href="#DejaVuSans-54"/>
       <use xlink:href="#DejaVuSans-53" x="61.083984"/>
       <use xlink:href="#DejaVuSans-34" x="124.560547"/>
      </g>
     </g>
    </g>
    <g id="text_5">
     <!-- Dataset -->
     <g transform="translate(211.596875 305.043875) scale(0.12 -0.12)">
      <defs>
       <path id="DejaVuSans-44" d="M 1259 4147 
L 1259 519 
L 2022 519 
Q 2988 519 3436 956 
Q 3884 1394 3884 2338 
Q 3884 3275 3436 3711 
Q 2988 4147 2022 4147 
L 1259 4147 
z
M 628 4666 
L 1925 4666 
Q 3281 4666 3915 4102 
Q 4550 3538 4550 2338 
Q 4550 1131 3912 565 
Q 3275 0 1925 0 
L 628 0 
L 628 4666 
z
" transform="scale(0.015625)"/>
       <path id="DejaVuSans-61" d="M 2194 1759 
Q 1497 1759 1228 1600 
Q 959 1441 959 1056 
Q 959 750 1161 570 
Q 1363 391 1709 391 
Q 2188 391 2477 730 
Q 2766 1069 2766 1631 
L 2766 1759 
L 2194 1759 
z
M 3341 1997 
L 3341 0 
L 2766 0 
L 2766 531 
Q 2569 213 2275 61 
Q 1981 -91 1556 -91 
Q 1019 -91 701 211 
Q 384 513 384 1019 
Q 384 1609 779 1909 
Q 1175 2209 1959 2209 
L 2766 2209 
L 2766 2266 
Q 2766 2663 2505 2880 
Q 2244 3097 1772 3097 
Q 1472 3097 1187 3025 
Q 903 2953 641 2809 
L 641 3341 
Q 956 3463 1253 3523 
Q 1550 3584 1831 3584 
Q 2591 3584 2966 3190 
Q 3341 2797 3341 1997 
z
" transform="scale(0.015625)"/>
       <path id="DejaVuSans-74" d="M 1172 4494 
L 1172 3500 
L 2356 3500 
L 2356 3053 
L 1172 3053 
L 1172 1153 
Q 1172 725 1289 603 
Q 1406 481 1766 481 
L 2356 481 
L 2356 0 
L 1766 0 
Q 1100 0 847 248 
Q 594 497 594 1153 
L 594 3053 
L 172 3053 
L 172 3500 
L 594 3500 
L 594 4494 
L 1172 4494 
z
" transform="scale(0.015625)"/>
       <path id="DejaVuSans-73" d="M 2834 3397 
L 2834 2853 
Q 2591 2978 2328 3040 
Q 2066 3103 1784 3103 
Q 1356 3103 1142 2972 
Q 928 2841 928 2578 
Q 928 2378 1081 2264 
Q 1234 2150 1697 2047 
L 1894 2003 
Q 2506 1872 2764 1633 
Q 3022 1394 3022 966 
Q 3022 478 2636 193 
Q 2250 -91 1575 -91 
Q 1294 -91 989 -36 
Q 684 19 347 128 
L 347 722 
Q 666 556 975 473 
Q 1284 391 1588 391 
Q 1994 391 2212 530 
Q 2431 669 2431 922 
Q 2431 1156 2273 1281 
Q 2116 1406 1581 1522 
L 1381 1569 
Q 847 1681 609 1914 
Q 372 2147 372 2553 
Q 372 3047 722 3315 
Q 1072 3584 1716 3584 
Q 2034 3584 2315 3537 
Q 2597 3491 2834 3397 
z
" transform="scale(0.015625)"/>
       <path id="DejaVuSans-65" d="M 3597 1894 
L 3597 1613 
L 953 1613 
Q 991 1019 1311 708 
Q 1631 397 2203 397 
Q 2534 397 2845 478 
Q 3156 559 3463 722 
L 3463 178 
Q 3153 47 2828 -22 
Q 2503 -91 2169 -91 
Q 1331 -91 842 396 
Q 353 884 353 1716 
Q 353 2575 817 3079 
Q 1281 3584 2069 3584 
Q 2775 3584 3186 3129 
Q 3597 2675 3597 1894 
z
M 3022 2063 
Q 3016 2534 2758 2815 
Q 2500 3097 2075 3097 
Q 1594 3097 1305 2825 
Q 1016 2553 972 2059 
L 3022 2063 
z
" transform="scale(0.015625)"/>
      </defs>
      <use xlink:href="#DejaVuSans-44"/>
      <use xlink:href="#DejaVuSans-61" x="77.001953"/>
      <use xlink:href="#DejaVuSans-74" x="138.28125"/>
      <use xlink:href="#DejaVuSans-61" x="177.490234"/>
      <use xlink:href="#DejaVuSans-73" x="238.769531"/>
      <use xlink:href="#DejaVuSans-65" x="290.869141"/>
      <use xlink:href="#DejaVuSans-74" x="352.392578"/>
     </g>
    </g>
   </g>
   <g id="matplotlib.axis_2">
    <g id="ytick_1">
     <g id="line2d_5">
      <path d="M 56.5325 273.312 
L 413.6525 273.312 
" clip-path="url(#pd168e2d12e)" style="fill: none; stroke-dasharray: 2.96,1.28; stroke-dashoffset: 0; stroke: #b0b0b0; stroke-opacity: 0.4; stroke-width: 0.8"/>
     </g>
     <g id="line2d_6">
      <defs>
       <path id="m275a76114d" d="M 0 0 
L -3.5 0 
" style="stroke: #000000; stroke-width: 0.8"/>
      </defs>
      <g>
       <use xlink:href="#m275a76114d" x="56.5325" y="273.312" style="stroke: #000000; stroke-width: 0.8"/>
      </g>
     </g>
     <g id="text_6">
      <!-- 0.60 -->
      <g transform="translate(22.81375 277.871062) scale(0.12 -0.12)">
       <defs>
        <path id="DejaVuSans-30" d="M 2034 4250 
Q 1547 4250 1301 3770 
Q 1056 3291 1056 2328 
Q 1056 1369 1301 889 
Q 1547 409 2034 409 
Q 2525 409 2770 889 
Q 3016 1369 3016 2328 
Q 3016 3291 2770 3770 
Q 2525 4250 2034 4250 
z
M 2034 4750 
Q 2819 4750 3233 4129 
Q 3647 3509 3647 2328 
Q 3647 1150 3233 529 
Q 2819 -91 2034 -91 
Q 1250 -91 836 529 
Q 422 1150 422 2328 
Q 422 3509 836 4129 
Q 1250 4750 2034 4750 
z
" transform="scale(0.015625)"/>
        <path id="DejaVuSans-2e" d="M 684 794 
L 1344 794 
L 1344 0 
L 684 0 
L 684 794 
z
" transform="scale(0.015625)"/>
        <path id="DejaVuSans-36" d="M 2113 2584 
Q 1688 2584 1439 2293 
Q 1191 2003 1191 1497 
Q 1191 994 1439 701 
Q 1688 409 2113 409 
Q 2538 409 2786 701 
Q 3034 994 3034 1497 
Q 3034 2003 2786 2293 
Q 2538 2584 2113 2584 
z
M 3366 4563 
L 3366 3988 
Q 3128 4100 2886 4159 
Q 2644 4219 2406 4219 
Q 1781 4219 1451 3797 
Q 1122 3375 1075 2522 
Q 1259 2794 1537 2939 
Q 1816 3084 2150 3084 
Q 2853 3084 3261 2657 
Q 3669 2231 3669 1497 
Q 3669 778 3244 343 
Q 2819 -91 2113 -91 
Q 1303 -91 875 529 
Q 447 1150 447 2328 
Q 447 3434 972 4092 
Q 1497 4750 2381 4750 
Q 2619 4750 2861 4703 
Q 3103 4656 3366 4563 
z
" transform="scale(0.015625)"/>
       </defs>
       <use xlink:href="#DejaVuSans-30"/>
       <use xlink:href="#DejaVuSans-2e" x="63.623047"/>
       <use xlink:href="#DejaVuSans-36" x="95.410156"/>
       <use xlink:href="#DejaVuSans-30" x="159.033203"/>
      </g>
     </g>
    </g>
    <g id="ytick_2">
     <g id="line2d_7">
      <path d="M 56.5325 227.430621 
L 413.6525 227.430621 
" clip-path="url(#pd168e2d12e)" style="fill: none; stroke-dasharray: 2.96,1.28; stroke-dashoffset: 0; stroke: #b0b0b0; stroke-opacity: 0.4; stroke-width: 0.8"/>
     </g>
     <g id="line2d_8">
      <g>
       <use xlink:href="#m275a76114d" x="56.5325" y="227.430621" style="stroke: #000000; stroke-width: 0.8"/>
      </g>
     </g>
     <g id="text_7">
      <!-- 0.65 -->
      <g transform="translate(22.81375 231.989683) scale(0.12 -0.12)">
       <defs>
        <path id="DejaVuSans-35" d="M 691 4666 
L 3169 4666 
L 3169 4134 
L 1269 4134 
L 1269 2991 
Q 1406 3038 1543 3061 
Q 1681 3084 1819 3084 
Q 2600 3084 3056 2656 
Q 3513 2228 3513 1497 
Q 3513 744 3044 326 
Q 2575 -91 1722 -91 
Q 1428 -91 1123 -41 
Q 819 9 494 109 
L 494 744 
Q 775 591 1075 516 
Q 1375 441 1709 441 
Q 2250 441 2565 725 
Q 2881 1009 2881 1497 
Q 2881 1984 2565 2268 
Q 2250 2553 1709 2553 
Q 1456 2553 1204 2497 
Q 953 2441 691 2322 
L 691 4666 
z
" transform="scale(0.015625)"/>
       </defs>
       <use xlink:href="#DejaVuSans-30"/>
       <use xlink:href="#DejaVuSans-2e" x="63.623047"/>
       <use xlink:href="#DejaVuSans-36" x="95.410156"/>
       <use xlink:href="#DejaVuSans-35" x="159.033203"/>
      </g>
     </g>
    </g>
    <g id="ytick_3">
     <g id="line2d_9">
      <path d="M 56.5325 181.549241 
L 413.6525 181.549241 
" clip-path="url(#pd168e2d12e)" style="fill: none; stroke-dasharray: 2.96,1.28; stroke-dashoffset: 0; stroke: #b0b0b0; stroke-opacity: 0.4; stroke-width: 0.8"/>
     </g>
     <g id="line2d_10">
      <g>
       <use xlink:href="#m275a76114d" x="56.5325" y="181.549241" style="stroke: #000000; stroke-width: 0.8"/>
      </g>
     </g>
     <g id="text_8">
      <!-- 0.70 -->
      <g transform="translate(22.81375 186.108304) scale(0.12 -0.12)">
       <defs>
        <path id="DejaVuSans-37" d="M 525 4666 
L 3525 4666 
L 3525 4397 
L 1831 0 
L 1172 0 
L 2766 4134 
L 525 4134 
L 525 4666 
z
" transform="scale(0.015625)"/>
       </defs>
       <use xlink:href="#DejaVuSans-30"/>
       <use xlink:href="#DejaVuSans-2e" x="63.623047"/>
       <use xlink:href="#DejaVuSans-37" x="95.410156"/>
       <use xlink:href="#DejaVuSans-30" x="159.033203"/>
      </g>
     </g>
    </g>
    <g id="ytick_4">
     <g id="line2d_11">
      <path d="M 56.5325 135.667862 
L 413.6525 135.667862 
" clip-path="url(#pd168e2d12e)" style="fill: none; stroke-dasharray: 2.96,1.28; stroke-dashoffset: 0; stroke: #b0b0b0; stroke-opacity: 0.4; stroke-width: 0.8"/>
     </g>
     <g id="line2d_12">
      <g>
       <use xlink:href="#m275a76114d" x="56.5325" y="135.667862" style="stroke: #000000; stroke-width: 0.8"/>
      </g>
     </g>
     <g id="text_9">
      <!-- 0.75 -->
      <g transform="translate(22.81375 140.226925) scale(0.12 -0.12)">
       <use xlink:href="#DejaVuSans-30"/>
       <use xlink:href="#DejaVuSans-2e" x="63.623047"/>
       <use xlink:href="#DejaVuSans-37" x="95.410156"/>
       <use xlink:href="#DejaVuSans-35" x="159.033203"/>
      </g>
     </g>
    </g>
    <g id="ytick_5">
     <g id="line2d_13">
      <path d="M 56.5325 89.786483 
L 413.6525 89.786483 
" clip-path="url(#pd168e2d12e)" style="fill: none; stroke-dasharray: 2.96,1.28; stroke-dashoffset: 0; stroke: #b0b0b0; stroke-opacity: 0.4; stroke-width: 0.8"/>
     </g>
     <g id="line2d_14">
      <g>
       <use xlink:href="#m275a76114d" x="56.5325" y="89.786483" style="stroke: #000000; stroke-width: 0.8"/>
      </g>
     </g>
     <g id="text_10">
      <!-- 0.80 -->
      <g transform="translate(22.81375 94.345545) scale(0.12 -0.12)">
       <defs>
        <path id="DejaVuSans-38" d="M 2034 2216 
Q 1584 2216 1326 1975 
Q 1069 1734 1069 1313 
Q 1069 891 1326 650 
Q 1584 409 2034 409 
Q 2484 409 2743 651 
Q 3003 894 3003 1313 
Q 3003 1734 2745 1975 
Q 2488 2216 2034 2216 
z
M 1403 2484 
Q 997 2584 770 2862 
Q 544 3141 544 3541 
Q 544 4100 942 4425 
Q 1341 4750 2034 4750 
Q 2731 4750 3128 4425 
Q 3525 4100 3525 3541 
Q 3525 3141 3298 2862 
Q 3072 2584 2669 2484 
Q 3125 2378 3379 2068 
Q 3634 1759 3634 1313 
Q 3634 634 3220 271 
Q 2806 -91 2034 -91 
Q 1263 -91 848 271 
Q 434 634 434 1313 
Q 434 1759 690 2068 
Q 947 2378 1403 2484 
z
M 1172 3481 
Q 1172 3119 1398 2916 
Q 1625 2713 2034 2713 
Q 2441 2713 2670 2916 
Q 2900 3119 2900 3481 
Q 2900 3844 2670 4047 
Q 2441 4250 2034 4250 
Q 1625 4250 1398 4047 
Q 1172 3844 1172 3481 
z
" transform="scale(0.015625)"/>
       </defs>
       <use xlink:href="#DejaVuSans-30"/>
       <use xlink:href="#DejaVuSans-2e" x="63.623047"/>
       <use xlink:href="#DejaVuSans-38" x="95.410156"/>
       <use xlink:href="#DejaVuSans-30" x="159.033203"/>
      </g>
     </g>
    </g>
    <g id="ytick_6">
     <g id="line2d_15">
      <path d="M 56.5325 43.905103 
L 413.6525 43.905103 
" clip-path="url(#pd168e2d12e)" style="fill: none; stroke-dasharray: 2.96,1.28; stroke-dashoffset: 0; stroke: #b0b0b0; stroke-opacity: 0.4; stroke-width: 0.8"/>
     </g>
     <g id="line2d_16">
      <g>
       <use xlink:href="#m275a76114d" x="56.5325" y="43.905103" style="stroke: #000000; stroke-width: 0.8"/>
      </g>
     </g>
     <g id="text_11">
      <!-- 0.85 -->
      <g transform="translate(22.81375 48.464166) scale(0.12 -0.12)">
       <use xlink:href="#DejaVuSans-30"/>
       <use xlink:href="#DejaVuSans-2e" x="63.623047"/>
       <use xlink:href="#DejaVuSans-38" x="95.410156"/>
       <use xlink:href="#DejaVuSans-35" x="159.033203"/>
      </g>
     </g>
    </g>
    <g id="ytick_7">
     <g id="line2d_17">
      <path d="M 56.5325 264.135724 
L 413.6525 264.135724 
" clip-path="url(#pd168e2d12e)" style="fill: none; stroke-dasharray: 2.96,1.28; stroke-dashoffset: 0; stroke: #b0b0b0; stroke-opacity: 0.2; stroke-width: 0.8"/>
     </g>
     <g id="line2d_18">
      <defs>
       <path id="m7b7bb8ad80" d="M 0 0 
L -2 0 
" style="stroke: #000000; stroke-width: 0.6"/>
      </defs>
      <g>
       <use xlink:href="#m7b7bb8ad80" x="56.5325" y="264.135724" style="stroke: #000000; stroke-width: 0.6"/>
      </g>
     </g>
    </g>
    <g id="ytick_8">
     <g id="line2d_19">
      <path d="M 56.5325 254.959448 
L 413.6525 254.959448 
" clip-path="url(#pd168e2d12e)" style="fill: none; stroke-dasharray: 2.96,1.28; stroke-dashoffset: 0; stroke: #b0b0b0; stroke-opacity: 0.2; stroke-width: 0.8"/>
     </g>
     <g id="line2d_20">
      <g>
       <use xlink:href="#m7b7bb8ad80" x="56.5325" y="254.959448" style="stroke: #000000; stroke-width: 0.6"/>
      </g>
     </g>
    </g>
    <g id="ytick_9">
     <g id="line2d_21">
      <path d="M 56.5325 245.783172 
L 413.6525 245.783172 
" clip-path="url(#pd168e2d12e)" style="fill: none; stroke-dasharray: 2.96,1.28; stroke-dashoffset: 0; stroke: #b0b0b0; stroke-opacity: 0.2; stroke-width: 0.8"/>
     </g>
     <g id="line2d_22">
      <g>
       <use xlink:href="#m7b7bb8ad80" x="56.5325" y="245.783172" style="stroke: #000000; stroke-width: 0.6"/>
      </g>
     </g>
    </g>
    <g id="ytick_10">
     <g id="line2d_23">
      <path d="M 56.5325 236.606897 
L 413.6525 236.606897 
" clip-path="url(#pd168e2d12e)" style="fill: none; stroke-dasharray: 2.96,1.28; stroke-dashoffset: 0; stroke: #b0b0b0; stroke-opacity: 0.2; stroke-width: 0.8"/>
     </g>
     <g id="line2d_24">
      <g>
       <use xlink:href="#m7b7bb8ad80" x="56.5325" y="236.606897" style="stroke: #000000; stroke-width: 0.6"/>
      </g>
     </g>
    </g>
    <g id="ytick_11">
     <g id="line2d_25">
      <path d="M 56.5325 218.254345 
L 413.6525 218.254345 
" clip-path="url(#pd168e2d12e)" style="fill: none; stroke-dasharray: 2.96,1.28; stroke-dashoffset: 0; stroke: #b0b0b0; stroke-opacity: 0.2; stroke-width: 0.8"/>
     </g>
     <g id="line2d_26">
      <g>
       <use xlink:href="#m7b7bb8ad80" x="56.5325" y="218.254345" style="stroke: #000000; stroke-width: 0.6"/>
      </g>
     </g>
    </g>
    <g id="ytick_12">
     <g id="line2d_27">
      <path d="M 56.5325 209.078069 
L 413.6525 209.078069 
" clip-path="url(#pd168e2d12e)" style="fill: none; stroke-dasharray: 2.96,1.28; stroke-dashoffset: 0; stroke: #b0b0b0; stroke-opacity: 0.2; stroke-width: 0.8"/>
     </g>
     <g id="line2d_28">
      <g>
       <use xlink:href="#m7b7bb8ad80" x="56.5325" y="209.078069" style="stroke: #000000; stroke-width: 0.6"/>
      </g>
     </g>
    </g>
    <g id="ytick_13">
     <g id="line2d_29">
      <path d="M 56.5325 199.901793 
L 413.6525 199.901793 
" clip-path="url(#pd168e2d12e)" style="fill: none; stroke-dasharray: 2.96,1.28; stroke-dashoffset: 0; stroke: #b0b0b0; stroke-opacity: 0.2; stroke-width: 0.8"/>
     </g>
     <g id="line2d_30">
      <g>
       <use xlink:href="#m7b7bb8ad80" x="56.5325" y="199.901793" style="stroke: #000000; stroke-width: 0.6"/>
      </g>
     </g>
    </g>
    <g id="ytick_14">
     <g id="line2d_31">
      <path d="M 56.5325 190.725517 
L 413.6525 190.725517 
" clip-path="url(#pd168e2d12e)" style="fill: none; stroke-dasharray: 2.96,1.28; stroke-dashoffset: 0; stroke: #b0b0b0; stroke-opacity: 0.2; stroke-width: 0.8"/>
     </g>
     <g id="line2d_32">
      <g>
       <use xlink:href="#m7b7bb8ad80" x="56.5325" y="190.725517" style="stroke: #000000; stroke-width: 0.6"/>
      </g>
     </g>
    </g>
    <g id="ytick_15">
     <g id="line2d_33">
      <path d="M 56.5325 172.372966 
L 413.6525 172.372966 
" clip-path="url(#pd168e2d12e)" style="fill: none; stroke-dasharray: 2.96,1.28; stroke-dashoffset: 0; stroke: #b0b0b0; stroke-opacity: 0.2; stroke-width: 0.8"/>
     </g>
     <g id="line2d_34">
      <g>
       <use xlink:href="#m7b7bb8ad80" x="56.5325" y="172.372966" style="stroke: #000000; stroke-width: 0.6"/>
      </g>
     </g>
    </g>
    <g id="ytick_16">
     <g id="line2d_35">
      <path d="M 56.5325 163.19669 
L 413.6525 163.19669 
" clip-path="url(#pd168e2d12e)" style="fill: none; stroke-dasharray: 2.96,1.28; stroke-dashoffset: 0; stroke: #b0b0b0; stroke-opacity: 0.2; stroke-width: 0.8"/>
     </g>
     <g id="line2d_36">
      <g>
       <use xlink:href="#m7b7bb8ad80" x="56.5325" y="163.19669" style="stroke: #000000; stroke-width: 0.6"/>
      </g>
     </g>
    </g>
    <g id="ytick_17">
     <g id="line2d_37">
      <path d="M 56.5325 154.020414 
L 413.6525 154.020414 
" clip-path="url(#pd168e2d12e)" style="fill: none; stroke-dasharray: 2.96,1.28; stroke-dashoffset: 0; stroke: #b0b0b0; stroke-opacity: 0.2; stroke-width: 0.8"/>
     </g>
     <g id="line2d_38">
      <g>
       <use xlink:href="#m7b7bb8ad80" x="56.5325" y="154.020414" style="stroke: #000000; stroke-width: 0.6"/>
      </g>
     </g>
    </g>
    <g id="ytick_18">
     <g id="line2d_39">
      <path d="M 56.5325 144.844138 
L 413.6525 144.844138 
" clip-path="url(#pd168e2d12e)" style="fill: none; stroke-dasharray: 2.96,1.28; stroke-dashoffset: 0; stroke: #b0b0b0; stroke-opacity: 0.2; stroke-width: 0.8"/>
     </g>
     <g id="line2d_40">
      <g>
       <use xlink:href="#m7b7bb8ad80" x="56.5325" y="144.844138" style="stroke: #000000; stroke-width: 0.6"/>
      </g>
     </g>
    </g>
    <g id="ytick_19">
     <g id="line2d_41">
      <path d="M 56.5325 126.491586 
L 413.6525 126.491586 
" clip-path="url(#pd168e2d12e)" style="fill: none; stroke-dasharray: 2.96,1.28; stroke-dashoffset: 0; stroke: #b0b0b0; stroke-opacity: 0.2; stroke-width: 0.8"/>
     </g>
     <g id="line2d_42">
      <g>
       <use xlink:href="#m7b7bb8ad80" x="56.5325" y="126.491586" style="stroke: #000000; stroke-width: 0.6"/>
      </g>
     </g>
    </g>
    <g id="ytick_20">
     <g id="line2d_43">
      <path d="M 56.5325 117.31531 
L 413.6525 117.31531 
" clip-path="url(#pd168e2d12e)" style="fill: none; stroke-dasharray: 2.96,1.28; stroke-dashoffset: 0; stroke: #b0b0b0; stroke-opacity: 0.2; stroke-width: 0.8"/>
     </g>
     <g id="line2d_44">
      <g>
       <use xlink:href="#m7b7bb8ad80" x="56.5325" y="117.31531" style="stroke: #000000; stroke-width: 0.6"/>
      </g>
     </g>
    </g>
    <g id="ytick_21">
     <g id="line2d_45">
      <path d="M 56.5325 108.139034 
L 413.6525 108.139034 
" clip-path="url(#pd168e2d12e)" style="fill: none; stroke-dasharray: 2.96,1.28; stroke-dashoffset: 0; stroke: #b0b0b0; stroke-opacity: 0.2; stroke-width: 0.8"/>
     </g>
     <g id="line2d_46">
      <g>
       <use xlink:href="#m7b7bb8ad80" x="56.5325" y="108.139034" style="stroke: #000000; stroke-width: 0.6"/>
      </g>
     </g>
    </g>
    <g id="ytick_22">
     <g id="line2d_47">
      <path d="M 56.5325 98.962759 
L 413.6525 98.962759 
" clip-path="url(#pd168e2d12e)" style="fill: none; stroke-dasharray: 2.96,1.28; stroke-dashoffset: 0; stroke: #b0b0b0; stroke-opacity: 0.2; stroke-width: 0.8"/>
     </g>
     <g id="line2d_48">
      <g>
       <use xlink:href="#m7b7bb8ad80" x="56.5325" y="98.962759" style="stroke: #000000; stroke-width: 0.6"/>
      </g>
     </g>
    </g>
    <g id="ytick_23">
     <g id="line2d_49">
      <path d="M 56.5325 80.610207 
L 413.6525 80.610207 
" clip-path="url(#pd168e2d12e)" style="fill: none; stroke-dasharray: 2.96,1.28; stroke-dashoffset: 0; stroke: #b0b0b0; stroke-opacity: 0.2; stroke-width: 0.8"/>
     </g>
     <g id="line2d_50">
      <g>
       <use xlink:href="#m7b7bb8ad80" x="56.5325" y="80.610207" style="stroke: #000000; stroke-width: 0.6"/>
      </g>
     </g>
    </g>
    <g id="ytick_24">
     <g id="line2d_51">
      <path d="M 56.5325 71.433931 
L 413.6525 71.433931 
" clip-path="url(#pd168e2d12e)" style="fill: none; stroke-dasharray: 2.96,1.28; stroke-dashoffset: 0; stroke: #b0b0b0; stroke-opacity: 0.2; stroke-width: 0.8"/>
     </g>
     <g id="line2d_52">
      <g>
       <use xlink:href="#m7b7bb8ad80" x="56.5325" y="71.433931" style="stroke: #000000; stroke-width: 0.6"/>
      </g>
     </g>
    </g>
    <g id="ytick_25">
     <g id="line2d_53">
      <path d="M 56.5325 62.257655 
L 413.6525 62.257655 
" clip-path="url(#pd168e2d12e)" style="fill: none; stroke-dasharray: 2.96,1.28; stroke-dashoffset: 0; stroke: #b0b0b0; stroke-opacity: 0.2; stroke-width: 0.8"/>
     </g>
     <g id="line2d_54">
      <g>
       <use xlink:href="#m7b7bb8ad80" x="56.5325" y="62.257655" style="stroke: #000000; stroke-width: 0.6"/>
      </g>
     </g>
    </g>
    <g id="ytick_26">
     <g id="line2d_55">
      <path d="M 56.5325 53.081379 
L 413.6525 53.081379 
" clip-path="url(#pd168e2d12e)" style="fill: none; stroke-dasharray: 2.96,1.28; stroke-dashoffset: 0; stroke: #b0b0b0; stroke-opacity: 0.2; stroke-width: 0.8"/>
     </g>
     <g id="line2d_56">
      <g>
       <use xlink:href="#m7b7bb8ad80" x="56.5325" y="53.081379" style="stroke: #000000; stroke-width: 0.6"/>
      </g>
     </g>
    </g>
    <g id="ytick_27">
     <g id="line2d_57">
      <path d="M 56.5325 34.728828 
L 413.6525 34.728828 
" clip-path="url(#pd168e2d12e)" style="fill: none; stroke-dasharray: 2.96,1.28; stroke-dashoffset: 0; stroke: #b0b0b0; stroke-opacity: 0.2; stroke-width: 0.8"/>
     </g>
     <g id="line2d_58">
      <g>
       <use xlink:href="#m7b7bb8ad80" x="56.5325" y="34.728828" style="stroke: #000000; stroke-width: 0.6"/>
      </g>
     </g>
    </g>
    <g id="ytick_28">
     <g id="line2d_59">
      <path d="M 56.5325 25.552552 
L 413.6525 25.552552 
" clip-path="url(#pd168e2d12e)" style="fill: none; stroke-dasharray: 2.96,1.28; stroke-dashoffset: 0; stroke: #b0b0b0; stroke-opacity: 0.2; stroke-width: 0.8"/>
     </g>
     <g id="line2d_60">
      <g>
       <use xlink:href="#m7b7bb8ad80" x="56.5325" y="25.552552" style="stroke: #000000; stroke-width: 0.6"/>
      </g>
     </g>
    </g>
    <g id="ytick_29">
     <g id="line2d_61">
      <path d="M 56.5325 16.376276 
L 413.6525 16.376276 
" clip-path="url(#pd168e2d12e)" style="fill: none; stroke-dasharray: 2.96,1.28; stroke-dashoffset: 0; stroke: #b0b0b0; stroke-opacity: 0.2; stroke-width: 0.8"/>
     </g>
     <g id="line2d_62">
      <g>
       <use xlink:href="#m7b7bb8ad80" x="56.5325" y="16.376276" style="stroke: #000000; stroke-width: 0.6"/>
      </g>
     </g>
    </g>
    <g id="ytick_30">
     <g id="line2d_63">
      <path d="M 56.5325 7.2 
L 413.6525 7.2 
" clip-path="url(#pd168e2d12e)" style="fill: none; stroke-dasharray: 2.96,1.28; stroke-dashoffset: 0; stroke: #b0b0b0; stroke-opacity: 0.2; stroke-width: 0.8"/>
     </g>
     <g id="line2d_64">
      <g>
       <use xlink:href="#m7b7bb8ad80" x="56.5325" y="7.2" style="stroke: #000000; stroke-width: 0.6"/>
      </g>
     </g>
    </g>
    <g id="text_12">
     <!-- $F_{1}$ score -->
     <g transform="translate(16.318125 164.736) rotate(-90) scale(0.12 -0.12)">
      <defs>
       <path id="DejaVuSans-Oblique-46" d="M 1081 4666 
L 3756 4666 
L 3653 4134 
L 1606 4134 
L 1338 2759 
L 3188 2759 
L 3084 2228 
L 1234 2228 
L 800 0 
L 172 0 
L 1081 4666 
z
" transform="scale(0.015625)"/>
       <path id="DejaVuSans-20" transform="scale(0.015625)"/>
       <path id="DejaVuSans-63" d="M 3122 3366 
L 3122 2828 
Q 2878 2963 2633 3030 
Q 2388 3097 2138 3097 
Q 1578 3097 1268 2742 
Q 959 2388 959 1747 
Q 959 1106 1268 751 
Q 1578 397 2138 397 
Q 2388 397 2633 464 
Q 2878 531 3122 666 
L 3122 134 
Q 2881 22 2623 -34 
Q 2366 -91 2075 -91 
Q 1284 -91 818 406 
Q 353 903 353 1747 
Q 353 2603 823 3093 
Q 1294 3584 2113 3584 
Q 2378 3584 2631 3529 
Q 2884 3475 3122 3366 
z
" transform="scale(0.015625)"/>
       <path id="DejaVuSans-6f" d="M 1959 3097 
Q 1497 3097 1228 2736 
Q 959 2375 959 1747 
Q 959 1119 1226 758 
Q 1494 397 1959 397 
Q 2419 397 2687 759 
Q 2956 1122 2956 1747 
Q 2956 2369 2687 2733 
Q 2419 3097 1959 3097 
z
M 1959 3584 
Q 2709 3584 3137 3096 
Q 3566 2609 3566 1747 
Q 3566 888 3137 398 
Q 2709 -91 1959 -91 
Q 1206 -91 779 398 
Q 353 888 353 1747 
Q 353 2609 779 3096 
Q 1206 3584 1959 3584 
z
" transform="scale(0.015625)"/>
       <path id="DejaVuSans-72" d="M 2631 2963 
Q 2534 3019 2420 3045 
Q 2306 3072 2169 3072 
Q 1681 3072 1420 2755 
Q 1159 2438 1159 1844 
L 1159 0 
L 581 0 
L 581 3500 
L 1159 3500 
L 1159 2956 
Q 1341 3275 1631 3429 
Q 1922 3584 2338 3584 
Q 2397 3584 2469 3576 
Q 2541 3569 2628 3553 
L 2631 2963 
z
" transform="scale(0.015625)"/>
      </defs>
      <use xlink:href="#DejaVuSans-Oblique-46" transform="translate(0 0.09375)"/>
      <use xlink:href="#DejaVuSans-31" transform="translate(57.519531 -16.3125) scale(0.7)"/>
      <use xlink:href="#DejaVuSans-20" transform="translate(104.790039 0.09375)"/>
      <use xlink:href="#DejaVuSans-73" transform="translate(136.577148 0.09375)"/>
      <use xlink:href="#DejaVuSans-63" transform="translate(188.676758 0.09375)"/>
      <use xlink:href="#DejaVuSans-6f" transform="translate(243.657227 0.09375)"/>
      <use xlink:href="#DejaVuSans-72" transform="translate(304.838867 0.09375)"/>
      <use xlink:href="#DejaVuSans-65" transform="translate(345.952148 0.09375)"/>
     </g>
    </g>
   </g>
   <g id="LineCollection_1">
    <path d="M 93.056136 83.094922 
L 93.056136 64.037477 
" clip-path="url(#pd168e2d12e)" style="fill: none; stroke: #0000ff; stroke-width: 2"/>
   </g>
   <g id="line2d_65">
    <defs>
     <path id="mf645055d7c" d="M 5 0 
L -5 -0 
" style="stroke: #0000ff"/>
    </defs>
    <g clip-path="url(#pd168e2d12e)">
     <use xlink:href="#mf645055d7c" x="93.056136" y="83.094922" style="fill: #0000ff; stroke: #0000ff"/>
    </g>
   </g>
   <g id="line2d_66">
    <g clip-path="url(#pd168e2d12e)">
     <use xlink:href="#mf645055d7c" x="93.056136" y="64.037477" style="fill: #0000ff; stroke: #0000ff"/>
    </g>
   </g>
   <g id="LineCollection_2">
    <path d="M 72.765227 79.986711 
L 72.765227 54.082842 
" clip-path="url(#pd168e2d12e)" style="fill: none; stroke: #ffa500; stroke-width: 2"/>
   </g>
   <g id="line2d_67">
    <defs>
     <path id="m0f5dea5c78" d="M 5 0 
L -5 -0 
" style="stroke: #ffa500"/>
    </defs>
    <g clip-path="url(#pd168e2d12e)">
     <use xlink:href="#m0f5dea5c78" x="72.765227" y="79.986711" style="fill: #ffa500; stroke: #ffa500"/>
    </g>
   </g>
   <g id="line2d_68">
    <g clip-path="url(#pd168e2d12e)">
     <use xlink:href="#m0f5dea5c78" x="72.765227" y="54.082842" style="fill: #ffa500; stroke: #ffa500"/>
    </g>
   </g>
   <g id="LineCollection_3">
    <path d="M 194.510682 157.923797 
L 194.510682 143.100741 
" clip-path="url(#pd168e2d12e)" style="fill: none; stroke: #0000ff; stroke-width: 2"/>
   </g>
   <g id="line2d_69">
    <g clip-path="url(#pd168e2d12e)">
     <use xlink:href="#mf645055d7c" x="194.510682" y="157.923797" style="fill: #0000ff; stroke: #0000ff"/>
    </g>
   </g>
   <g id="line2d_70">
    <g clip-path="url(#pd168e2d12e)">
     <use xlink:href="#mf645055d7c" x="194.510682" y="143.100741" style="fill: #0000ff; stroke: #0000ff"/>
    </g>
   </g>
   <g id="LineCollection_4">
    <path d="M 174.219773 153.800731 
L 174.219773 133.24982 
" clip-path="url(#pd168e2d12e)" style="fill: none; stroke: #ffa500; stroke-width: 2"/>
   </g>
   <g id="line2d_71">
    <g clip-path="url(#pd168e2d12e)">
     <use xlink:href="#m0f5dea5c78" x="174.219773" y="153.800731" style="fill: #ffa500; stroke: #ffa500"/>
    </g>
   </g>
   <g id="line2d_72">
    <g clip-path="url(#pd168e2d12e)">
     <use xlink:href="#m0f5dea5c78" x="174.219773" y="133.24982" style="fill: #ffa500; stroke: #ffa500"/>
    </g>
   </g>
   <g id="LineCollection_5">
    <path d="M 295.965227 81.880014 
L 295.965227 40.229368 
" clip-path="url(#pd168e2d12e)" style="fill: none; stroke: #0000ff; stroke-width: 2"/>
   </g>
   <g id="line2d_73">
    <g clip-path="url(#pd168e2d12e)">
     <use xlink:href="#mf645055d7c" x="295.965227" y="81.880014" style="fill: #0000ff; stroke: #0000ff"/>
    </g>
   </g>
   <g id="line2d_74">
    <g clip-path="url(#pd168e2d12e)">
     <use xlink:href="#mf645055d7c" x="295.965227" y="40.229368" style="fill: #0000ff; stroke: #0000ff"/>
    </g>
   </g>
   <g id="LineCollection_6">
    <path d="M 275.674318 60.93933 
L 275.674318 30.480643 
" clip-path="url(#pd168e2d12e)" style="fill: none; stroke: #ffa500; stroke-width: 2"/>
   </g>
   <g id="line2d_75">
    <g clip-path="url(#pd168e2d12e)">
     <use xlink:href="#m0f5dea5c78" x="275.674318" y="60.93933" style="fill: #ffa500; stroke: #ffa500"/>
    </g>
   </g>
   <g id="line2d_76">
    <g clip-path="url(#pd168e2d12e)">
     <use xlink:href="#m0f5dea5c78" x="275.674318" y="30.480643" style="fill: #ffa500; stroke: #ffa500"/>
    </g>
   </g>
   <g id="LineCollection_7">
    <path d="M 397.419773 153.702026 
L 397.419773 121.004068 
" clip-path="url(#pd168e2d12e)" style="fill: none; stroke: #0000ff; stroke-width: 2"/>
   </g>
   <g id="line2d_77">
    <g clip-path="url(#pd168e2d12e)">
     <use xlink:href="#mf645055d7c" x="397.419773" y="153.702026" style="fill: #0000ff; stroke: #0000ff"/>
    </g>
   </g>
   <g id="line2d_78">
    <g clip-path="url(#pd168e2d12e)">
     <use xlink:href="#mf645055d7c" x="397.419773" y="121.004068" style="fill: #0000ff; stroke: #0000ff"/>
    </g>
   </g>
   <g id="LineCollection_8">
    <path d="M 377.128864 154.62327 
L 377.128864 112.216908 
" clip-path="url(#pd168e2d12e)" style="fill: none; stroke: #ffa500; stroke-width: 2"/>
   </g>
   <g id="line2d_79">
    <g clip-path="url(#pd168e2d12e)">
     <use xlink:href="#m0f5dea5c78" x="377.128864" y="154.62327" style="fill: #ffa500; stroke: #ffa500"/>
    </g>
   </g>
   <g id="line2d_80">
    <g clip-path="url(#pd168e2d12e)">
     <use xlink:href="#m0f5dea5c78" x="377.128864" y="112.216908" style="fill: #ffa500; stroke: #ffa500"/>
    </g>
   </g>
   <g id="line2d_81">
    <defs>
     <path id="m0840f01ebd" d="M 0 4 
C 1.060812 4 2.078319 3.578535 2.828427 2.828427 
C 3.578535 2.078319 4 1.060812 4 0 
C 4 -1.060812 3.578535 -2.078319 2.828427 -2.828427 
C 2.078319 -3.578535 1.060812 -4 0 -4 
C -1.060812 -4 -2.078319 -3.578535 -2.828427 -2.828427 
C -3.578535 -2.078319 -4 -1.060812 -4 0 
C -4 1.060812 -3.578535 2.078319 -2.828427 2.828427 
C -2.078319 3.578535 -1.060812 4 0 4 
z
" style="stroke: #0000ff"/>
    </defs>
    <g clip-path="url(#pd168e2d12e)">
     <use xlink:href="#m0840f01ebd" x="93.056136" y="73.566199" style="fill: #0000ff; stroke: #0000ff"/>
    </g>
   </g>
   <g id="line2d_82">
    <defs>
     <path id="mf25fc5ab24" d="M 0 4 
C 1.060812 4 2.078319 3.578535 2.828427 2.828427 
C 3.578535 2.078319 4 1.060812 4 0 
C 4 -1.060812 3.578535 -2.078319 2.828427 -2.828427 
C 2.078319 -3.578535 1.060812 -4 0 -4 
C -1.060812 -4 -2.078319 -3.578535 -2.828427 -2.828427 
C -3.578535 -2.078319 -4 -1.060812 -4 0 
C -4 1.060812 -3.578535 2.078319 -2.828427 2.828427 
C -2.078319 3.578535 -1.060812 4 0 4 
z
" style="stroke: #ffa500"/>
    </defs>
    <g clip-path="url(#pd168e2d12e)">
     <use xlink:href="#mf25fc5ab24" x="72.765227" y="67.034777" style="fill: #ffa500; stroke: #ffa500"/>
    </g>
   </g>
   <g id="line2d_83">
    <g clip-path="url(#pd168e2d12e)">
     <use xlink:href="#m0840f01ebd" x="194.510682" y="150.512269" style="fill: #0000ff; stroke: #0000ff"/>
    </g>
   </g>
   <g id="line2d_84">
    <g clip-path="url(#pd168e2d12e)">
     <use xlink:href="#mf25fc5ab24" x="174.219773" y="143.525275" style="fill: #ffa500; stroke: #ffa500"/>
    </g>
   </g>
   <g id="line2d_85">
    <g clip-path="url(#pd168e2d12e)">
     <use xlink:href="#m0840f01ebd" x="295.965227" y="61.054691" style="fill: #0000ff; stroke: #0000ff"/>
    </g>
   </g>
   <g id="line2d_86">
    <g clip-path="url(#pd168e2d12e)">
     <use xlink:href="#mf25fc5ab24" x="275.674318" y="45.709986" style="fill: #ffa500; stroke: #ffa500"/>
    </g>
   </g>
   <g id="line2d_87">
    <g clip-path="url(#pd168e2d12e)">
     <use xlink:href="#m0840f01ebd" x="397.419773" y="137.353047" style="fill: #0000ff; stroke: #0000ff"/>
    </g>
   </g>
   <g id="line2d_88">
    <g clip-path="url(#pd168e2d12e)">
     <use xlink:href="#mf25fc5ab24" x="377.128864" y="133.420089" style="fill: #ffa500; stroke: #ffa500"/>
    </g>
   </g>
   <g id="patch_3">
    <path d="M 56.5325 273.312 
L 56.5325 7.2 
" style="fill: none; stroke: #000000; stroke-width: 0.8; stroke-linejoin: miter; stroke-linecap: square"/>
   </g>
   <g id="patch_4">
    <path d="M 56.5325 273.312 
L 413.6525 273.312 
" style="fill: none; stroke: #000000; stroke-width: 0.8; stroke-linejoin: miter; stroke-linecap: square"/>
   </g>
   <g id="legend_1">
    <g id="patch_5">
     <path d="M 327.7025 52.0275 
L 405.2525 52.0275 
Q 407.6525 52.0275 407.6525 49.6275 
L 407.6525 15.6 
Q 407.6525 13.2 405.2525 13.2 
L 327.7025 13.2 
Q 325.3025 13.2 325.3025 15.6 
L 325.3025 49.6275 
Q 325.3025 52.0275 327.7025 52.0275 
z
" style="fill: #ffffff; opacity: 0.8; stroke: #ffffff; stroke-linejoin: miter"/>
    </g>
    <g id="LineCollection_9">
     <path d="M 342.1025 28.918125 
L 342.1025 16.918125 
" style="fill: none; stroke: #0000ff; stroke-width: 2"/>
    </g>
    <g id="line2d_89">
     <g>
      <use xlink:href="#mf645055d7c" x="342.1025" y="28.918125" style="fill: #0000ff; stroke: #0000ff"/>
     </g>
    </g>
    <g id="line2d_90">
     <g>
      <use xlink:href="#mf645055d7c" x="342.1025" y="16.918125" style="fill: #0000ff; stroke: #0000ff"/>
     </g>
    </g>
    <g id="line2d_91"/>
    <g id="line2d_92">
     <g>
      <use xlink:href="#m0840f01ebd" x="342.1025" y="22.918125" style="fill: #0000ff; stroke: #0000ff"/>
     </g>
    </g>
    <g id="text_13">
     <!-- w/ FP -->
     <g transform="translate(363.7025 27.118125) scale(0.12 -0.12)">
      <defs>
       <path id="DejaVuSans-77" d="M 269 3500 
L 844 3500 
L 1563 769 
L 2278 3500 
L 2956 3500 
L 3675 769 
L 4391 3500 
L 4966 3500 
L 4050 0 
L 3372 0 
L 2619 2869 
L 1863 0 
L 1184 0 
L 269 3500 
z
" transform="scale(0.015625)"/>
       <path id="DejaVuSans-2f" d="M 1625 4666 
L 2156 4666 
L 531 -594 
L 0 -594 
L 1625 4666 
z
" transform="scale(0.015625)"/>
       <path id="DejaVuSans-46" d="M 628 4666 
L 3309 4666 
L 3309 4134 
L 1259 4134 
L 1259 2759 
L 3109 2759 
L 3109 2228 
L 1259 2228 
L 1259 0 
L 628 0 
L 628 4666 
z
" transform="scale(0.015625)"/>
       <path id="DejaVuSans-50" d="M 1259 4147 
L 1259 2394 
L 2053 2394 
Q 2494 2394 2734 2622 
Q 2975 2850 2975 3272 
Q 2975 3691 2734 3919 
Q 2494 4147 2053 4147 
L 1259 4147 
z
M 628 4666 
L 2053 4666 
Q 2838 4666 3239 4311 
Q 3641 3956 3641 3272 
Q 3641 2581 3239 2228 
Q 2838 1875 2053 1875 
L 1259 1875 
L 1259 0 
L 628 0 
L 628 4666 
z
" transform="scale(0.015625)"/>
      </defs>
      <use xlink:href="#DejaVuSans-77"/>
      <use xlink:href="#DejaVuSans-2f" x="81.787109"/>
      <use xlink:href="#DejaVuSans-20" x="115.478516"/>
      <use xlink:href="#DejaVuSans-46" x="147.265625"/>
      <use xlink:href="#DejaVuSans-50" x="204.785156"/>
     </g>
    </g>
    <g id="LineCollection_10">
     <path d="M 342.1025 46.531875 
L 342.1025 34.531875 
" style="fill: none; stroke: #ffa500; stroke-width: 2"/>
    </g>
    <g id="line2d_93">
     <g>
      <use xlink:href="#m0f5dea5c78" x="342.1025" y="46.531875" style="fill: #ffa500; stroke: #ffa500"/>
     </g>
    </g>
    <g id="line2d_94">
     <g>
      <use xlink:href="#m0f5dea5c78" x="342.1025" y="34.531875" style="fill: #ffa500; stroke: #ffa500"/>
     </g>
    </g>
    <g id="line2d_95"/>
    <g id="line2d_96">
     <g>
      <use xlink:href="#mf25fc5ab24" x="342.1025" y="40.531875" style="fill: #ffa500; stroke: #ffa500"/>
     </g>
    </g>
    <g id="text_14">
     <!-- w/o FP -->
     <g transform="translate(363.7025 44.731875) scale(0.12 -0.12)">
      <use xlink:href="#DejaVuSans-77"/>
      <use xlink:href="#DejaVuSans-2f" x="81.787109"/>
      <use xlink:href="#DejaVuSans-6f" x="115.478516"/>
      <use xlink:href="#DejaVuSans-20" x="176.660156"/>
      <use xlink:href="#DejaVuSans-46" x="208.447266"/>
      <use xlink:href="#DejaVuSans-50" x="265.966797"/>
     </g>
    </g>
   </g>
  </g>
 </g>
 <defs>
  <clipPath id="pd168e2d12e">
   <rect x="56.5325" y="7.2" width="357.12" height="266.112"/>
  </clipPath>
 </defs>
</svg>
